<svg xmlns="http://www.w3.org/2000/svg" viewBox="0 0 1400 760" preserveAspectRatio="xMidYMid meet">
  <style>
  .region-shape path { fill: rgba(243,243,244,0.12); stroke: rgba(243,243,244,0.38); stroke-width: 1.55; vector-effect: non-scaling-stroke; }
  .region-shape text { fill: rgba(243,243,244,0.96); font-family: Arial, Helvetica, sans-serif; font-size: 18px; font-weight: 700; paint-order: stroke; stroke: rgba(30,30,30,0.78); stroke-width: 4px; }
  .region-label-small { font-size: 13px; }
  .live path { fill: rgba(118,228,208,0.32); stroke: rgba(118,228,208,0.92); }
</style>
  <g class="region-shape" data-region="Asia Pacific">
    <path d="M1102.0 359.5L1102.3 362.3L1101.8 364.3L1102.5 368.2L1103.9 369.4L1105.4 373.1L1105.3 374.5L1102.6 374.8L1094.3 368.3L1093.8 366.2L1091.6 363.4L1091.1 359.9L1089.7 357.6L1090.1 354.5L1089.2 352.7L1087.7 351.1L1087.0 349.0L1083.1 344.6L1082.4 347.1L1081.7 344.7L1083.3 338.1L1082.9 334.9L1084.1 331.7L1082.8 329.2L1083.1 324.6L1081.5 322.4L1079.5 312.0L1077.9 308.5L1070.9 313.7L1066.3 312.3L1067.6 307.1L1066.8 303.1L1063.8 298.2L1064.2 296.7L1062.0 296.2L1059.2 292.7L1058.1 290.5L1057.1 286.3L1055.5 283.9L1051.9 283.7L1052.3 285.5L1051.1 287.8L1049.4 286.9L1048.8 287.7L1046.2 286.9L1045.7 288.4L1043.0 288.4L1038.2 289.2L1038.5 292.4L1036.4 294.9L1030.8 297.8L1026.4 302.7L1019.6 308.2L1019.6 310.1L1014.2 312.6L1012.4 312.9L1011.2 316.1L1012.2 325.1L1010.6 329.1L1010.6 336.3L1008.5 336.5L1006.8 339.7L1008.0 341.1L1004.4 342.3L1003.1 345.2L1001.5 346.4L997.9 342.4L994.6 332.3L991.1 326.2L989.5 318.3L986.0 312.5L983.2 298.9L983.2 293.8L982.5 289.8L976.8 292.4L974.1 291.9L969.0 286.7L970.8 285.2L969.7 283.6L965.1 280.0L967.7 277.2L976.3 277.2L975.5 273.5L973.3 271.4L972.9 268.1L970.3 266.2L974.6 261.8L979.1 262.1L983.2 257.7L985.6 253.4L989.4 249.2L989.4 246.2L992.7 243.7L989.5 241.7L986.8 235.1L988.7 233.3L994.6 234.3L998.9 233.7L1002.7 230.1L996.3 228.4L995.2 225.2L992.3 223.2L991.6 222.0L991.0 219.6L991.1 218.0L988.8 217.0L987.5 217.4L986.5 213.5L987.6 212.5L987.1 211.6L993.5 208.7L997.6 209.3L999.1 206.6L1004.1 206.1L1005.4 204.4L1011.6 202.1L1012.1 201.2L1011.8 198.8L1014.5 197.7L1011.0 190.3L1018.7 188.7L1020.7 187.7L1023.5 180.2L1031.2 181.6L1033.4 179.6L1033.5 175.4L1036.8 175.0L1039.7 172.2L1041.3 171.9L1042.3 174.8L1045.5 177.0L1051.1 178.6L1053.8 182.0L1052.3 187.0L1053.7 188.8L1063.5 190.1L1068.2 192.7L1070.6 193.2L1072.4 197.1L1074.7 199.6L1079.0 199.5L1087.0 200.5L1092.2 199.9L1096.0 200.5L1101.8 203.1L1106.5 203.1L1108.2 204.4L1112.7 202.1L1119.0 200.6L1124.8 200.5L1129.4 199.0L1132.2 196.7L1134.9 195.3L1133.0 192.3L1135.1 189.6L1141.2 190.8L1145.1 188.6L1151.1 186.9L1153.9 184.1L1156.6 182.9L1162.3 182.4L1165.4 182.9L1165.8 181.4L1162.3 178.4L1159.1 177.1L1156.1 178.6L1152.3 178.0L1150.1 178.5L1149.1 176.8L1153.8 169.4L1158.4 171.0L1163.9 168.3L1163.9 166.4L1167.4 161.9L1169.5 160.6L1169.5 158.3L1167.4 157.3L1170.6 155.2L1180.6 154.3L1186.4 155.5L1189.8 157.1L1195.0 165.8L1196.4 169.9L1203.2 171.3L1207.8 174.3L1209.4 178.2L1215.3 178.2L1218.7 176.6L1225.1 175.3L1223.1 179.1L1221.5 180.7L1220.2 185.3L1217.6 189.4L1212.9 188.6L1209.5 190.1L1210.6 193.8L1210.0 198.7L1208.0 198.9L1208.0 201.0L1208.6 201.7L1207.1 201.5L1204.3 204.4L1204.4 207.4L1202.4 208.3L1200.2 210.3L1197.7 211.0L1196.0 212.1L1195.8 214.0L1195.4 214.4L1199.1 217.0L1202.5 222.0L1203.5 224.7L1203.5 229.6L1202.0 231.9L1198.5 232.7L1195.4 234.4L1191.9 234.8L1191.5 232.5L1192.2 229.3L1190.5 224.9L1193.3 224.2L1190.7 220.6L1188.8 219.8L1188.3 220.6L1187.2 221.0L1187.0 220.2L1185.0 219.1L1186.1 217.2L1187.0 216.7L1186.6 216.0L1187.6 213.7L1187.4 213.0L1185.1 212.5L1183.3 211.4L1177.8 212.6L1175.0 214.6L1170.8 215.8L1172.8 213.8L1172.0 212.2L1175.1 209.3L1173.0 207.1L1169.7 208.6L1165.3 211.5L1162.9 214.3L1159.1 214.5L1157.1 216.4L1159.1 219.3L1162.3 220.0L1162.4 221.9L1165.5 223.1L1169.9 220.1L1173.3 221.7L1175.8 221.9L1176.5 224.1L1171.0 225.2L1169.1 227.5L1165.4 229.6L1163.4 232.6L1167.6 234.9L1169.1 239.1L1174.1 246.2L1174.0 249.3L1171.6 250.5L1172.5 252.7L1174.8 254.0L1173.2 260.8L1171.0 261.2L1165.1 271.3L1161.4 276.4L1150.7 283.8L1146.3 284.3L1143.9 286.2L1142.6 284.8L1140.4 286.9L1134.9 289.0L1130.8 289.7L1129.5 294.1L1127.3 294.4L1126.3 291.3L1127.3 289.7L1122.0 288.3L1120.2 289.0L1115.0 292.6L1111.8 296.6L1110.9 299.5L1117.5 309.5L1121.0 312.1L1123.4 315.5L1125.2 323.3L1124.7 330.7L1121.4 333.5L1117.0 336.2L1113.8 339.8L1108.9 343.7L1107.5 341.0L1108.6 338.1L1105.7 335.7L1102.5 335.1L1100.9 332.9L1098.9 328.5L1095.5 326.6L1092.1 326.7L1092.7 323.4L1089.3 323.4L1089.0 328.0L1085.6 337.9L1085.9 341.0L1088.4 341.1L1090.0 345.0L1090.7 348.6L1092.8 351.0L1095.2 351.5L1098.1 354.1L1100.4 356.7L1102.0 359.5Z M1009.9 345.4L1011.7 338.5L1014.4 340.9L1018.1 348.2L1017.5 352.6L1015.8 353.8L1012.5 354.8L1010.6 351.4L1009.9 345.4Z M1130.8 295.2L1131.7 296.8L1130.0 298.7L1129.1 301.1L1125.7 303.2L1122.5 301.9L1122.4 298.2L1124.4 296.3L1128.6 295.1L1130.8 295.2Z M1147.7 368.1L1145.7 374.0L1142.6 374.9L1138.9 373.7L1137.0 374.0L1134.8 376.2L1132.3 375.9L1129.8 376.7L1127.1 374.4L1126.5 371.5L1129.3 373.0L1132.3 372.2L1133.1 368.6L1139.4 366.9L1145.7 359.3L1149.0 357.0L1152.0 354.1L1153.9 350.8L1155.5 350.7L1157.5 352.9L1157.7 354.7L1163.5 357.2L1163.2 358.8L1160.6 359.0L1161.3 361.1L1158.4 362.5L1155.1 361.8L1150.6 361.8L1149.2 366.6L1147.7 368.1Z M1187.5 351.3L1188.8 354.5L1187.7 356.4L1183.1 354.0L1182.0 350.9L1183.2 348.9L1180.7 346.9L1179.5 348.7L1177.7 348.5L1174.8 350.9L1174.1 349.6L1175.7 346.1L1180.2 343.3L1181.6 345.2L1184.6 344.1L1185.2 342.2L1187.9 342.1L1187.7 338.8L1190.9 340.8L1192.1 349.6L1190.8 353.5L1189.3 349.2L1187.5 351.3Z M1162.7 336.2L1164.8 332.0L1165.5 335.4L1162.9 337.8L1160.9 340.7L1155.7 344.7L1157.6 341.7L1162.7 336.2Z M1182.5 332.6L1182.2 336.6L1178.3 341.9L1175.9 339.0L1177.7 336.7L1178.1 334.1L1180.3 333.8L1179.6 336.6L1182.5 332.6Z M1176.9 334.6L1174.5 335.9L1174.6 331.8L1174.0 329.8L1176.3 331.1L1178.8 331.1L1178.7 332.9L1176.9 334.6Z M1187.2 336.3L1185.3 337.2L1185.2 334.2L1184.0 334.0L1183.4 331.5L1185.7 331.8L1185.6 330.2L1183.3 327.0L1187.0 327.1L1188.1 328.6L1189.2 333.4L1186.2 332.2L1187.2 336.3Z M1171.6 328.5L1167.9 323.1L1171.3 323.3L1172.6 324.8L1171.6 328.5Z M1172.5 316.1L1173.4 319.5L1175.5 320.0L1177.2 319.5L1182.0 321.8L1181.7 324.1L1182.9 325.1L1182.5 327.1L1179.5 325.0L1178.1 322.8L1177.1 324.3L1174.6 321.8L1171.0 322.4L1169.1 321.5L1169.3 319.7L1170.5 318.7L1169.4 317.7L1168.9 319.2L1166.9 316.8L1166.4 315.0L1166.2 310.9L1167.8 312.3L1168.2 305.7L1169.5 301.9L1171.8 301.9L1174.2 303.1L1175.4 302.0L1175.8 303.1L1175.1 304.8L1176.4 307.8L1175.4 311.3L1173.1 312.7L1172.5 316.1Z M1169.4 276.4L1172.5 273.2L1174.3 274.5L1171.2 283.8L1169.6 287.2L1167.5 283.7L1167.1 280.5L1169.4 276.4Z M1208.6 201.7L1208.6 201.7L1208.6 201.7L1208.6 201.7Z" />
    
    
  </g>
</svg>
