<svg xmlns="http://www.w3.org/2000/svg" viewBox="0 0 1400 760" preserveAspectRatio="xMidYMid meet">
  <style>
  .region-shape path { fill: rgba(243,243,244,0.12); stroke: rgba(243,243,244,0.38); stroke-width: 1.55; vector-effect: non-scaling-stroke; }
  .region-shape text { fill: rgba(243,243,244,0.96); font-family: Arial, Helvetica, sans-serif; font-size: 18px; font-weight: 700; paint-order: stroke; stroke: rgba(30,30,30,0.78); stroke-width: 4px; }
  .region-label-small { font-size: 13px; }
  .live path { fill: rgba(118,228,208,0.32); stroke: rgba(118,228,208,0.92); }
</style>
  <g class="region-shape" data-region="Brazil">
    <path d="M492.4 522.6L491.4 520.2L493.1 518.2L490.8 515.3L483.8 510.3L482.3 510.4L478.4 507.1L475.9 507.6L485.5 497.7L491.4 493.7L491.4 490.3L489.5 487.9L487.6 488.7L488.9 483.7L488.9 481.4L487.5 480.7L486.0 481.3L484.6 481.2L483.7 475.7L483.0 474.4L480.4 473.3L478.8 474.1L474.7 473.3L474.9 467.5L473.8 465.2L475.0 464.3L474.6 461.9L475.7 460.1L476.4 456.7L475.5 454.1L473.4 452.9L472.9 451.3L473.5 448.8L466.1 448.6L464.6 443.7L465.7 443.7L464.7 438.2L462.5 436.9L460.0 437.0L458.4 435.7L455.8 434.9L454.2 433.3L449.9 432.6L445.7 428.8L445.9 421.2L440.8 421.9L435.4 425.2L434.5 426.5L429.6 426.2L427.4 427.0L425.6 426.5L425.9 420.1L422.7 422.6L419.3 422.4L417.8 420.2L415.2 420.0L416.1 418.1L413.9 415.6L412.3 411.8L413.3 411.0L413.3 409.2L415.6 408.0L415.3 405.7L416.2 404.2L416.5 402.3L421.0 399.4L424.2 398.6L424.7 397.9L428.2 398.1L430.0 384.7L429.4 382.3L427.7 380.8L427.7 377.7L429.9 377.0L430.7 377.5L430.8 375.8L428.5 375.4L428.5 372.8L436.1 372.9L437.4 371.4L438.4 372.7L439.2 375.2L439.9 374.7L442.1 376.9L445.1 376.7L445.8 375.4L450.3 373.7L450.8 371.9L453.6 370.7L453.4 369.8L450.1 369.5L449.5 366.8L449.7 364.0L447.9 362.9L448.7 362.5L454.6 364.1L455.8 363.1L462.9 360.8L464.3 359.2L463.8 358.0L465.8 357.9L466.7 358.8L466.2 360.7L467.6 361.3L468.5 363.3L467.4 364.8L466.8 368.4L468.0 372.5L470.4 374.4L472.3 374.6L472.8 373.8L475.8 372.9L477.0 371.8L482.2 372.3L482.6 371.5L481.9 370.6L482.3 369.4L483.9 369.8L485.7 369.3L489.7 371.1L490.9 370.0L491.7 370.1L492.3 371.3L494.1 371.0L495.6 369.4L496.8 366.3L499.1 362.5L500.4 362.3L503.6 372.0L505.7 372.7L505.8 375.6L502.8 379.1L504.0 380.3L510.9 381.0L511.1 385.2L514.0 382.5L525.4 386.6L527.3 389.0L526.6 391.4L531.1 390.1L538.7 392.3L544.5 392.1L550.3 395.6L555.2 400.4L558.2 401.6L561.6 401.7L563.0 403.1L564.9 411.0L563.4 418.0L555.9 426.6L553.5 431.4L550.6 435.0L549.6 435.1L548.5 438.2L548.8 446.1L547.3 455.4L546.1 457.1L545.4 462.8L541.4 468.3L540.8 472.6L537.6 474.5L536.7 477.0L532.5 477.0L526.4 478.6L523.6 480.5L519.3 481.7L514.7 485.1L511.4 489.3L510.8 492.4L511.5 494.7L510.8 499.0L509.9 501.1L507.2 503.4L502.8 510.8L496.8 516.1L495.0 520.2L492.4 522.6Z" />
    
    
  </g>
</svg>
