<svg xmlns="http://www.w3.org/2000/svg" viewBox="0 0 1400 760" preserveAspectRatio="xMidYMid meet">
  <style>
  .region-shape path { fill: rgba(243,243,244,0.12); stroke: rgba(243,243,244,0.38); stroke-width: 1.55; vector-effect: non-scaling-stroke; }
  .region-shape text { fill: rgba(243,243,244,0.96); font-family: Arial, Helvetica, sans-serif; font-size: 18px; font-weight: 700; paint-order: stroke; stroke: rgba(30,30,30,0.78); stroke-width: 4px; }
  .region-label-small { font-size: 13px; }
  .live path { fill: rgba(118,228,208,0.32); stroke: rgba(118,228,208,0.92); }
</style>
  <g class="region-shape" data-region="Europe">
    <path d="M491.7 370.1L490.9 370.0L489.7 371.1L488.0 370.2L489.0 368.5L490.0 364.7L488.4 362.2L488.1 359.3L490.2 355.7L494.3 357.2L498.5 360.7L499.1 362.5L496.8 366.3L495.6 369.4L494.1 371.0L492.3 371.3L491.7 370.1Z M666.0 221.0L665.6 218.4L663.9 218.0L663.0 216.4L663.3 213.7L664.8 212.1L665.9 207.9L664.9 203.2L665.1 200.2L663.5 198.3L669.0 195.3L683.1 196.7L692.6 196.7L694.6 194.1L695.4 185.7L691.3 181.3L688.5 179.1L682.5 177.5L682.1 174.4L687.2 173.5L693.7 174.6L692.5 169.8L696.2 171.6L705.2 168.4L706.4 164.9L712.9 163.2L714.9 162.0L718.3 155.8L723.6 154.1L726.9 154.2L727.6 153.3L730.9 153.1L731.6 154.0L734.2 151.9L733.3 150.3L733.2 147.9L731.6 145.6L731.5 141.3L733.2 138.9L736.7 138.6L738.0 137.4L741.1 136.3L741.0 138.4L739.9 139.8L740.3 141.0L742.4 141.6L741.5 143.2L740.3 142.8L737.5 145.8L738.6 147.8L738.7 149.5L742.6 150.5L742.5 152.0L746.5 151.2L748.7 150.0L753.1 151.7L754.9 153.0L768.5 148.4L772.4 149.1L772.7 150.1L788.4 150.6L788.1 149.5L788.5 148.4L782.7 147.0L781.9 143.4L782.0 140.2L783.9 137.6L787.6 136.2L790.7 139.3L793.8 139.2L795.0 133.5L793.6 134.0L791.1 132.5L790.8 130.1L800.6 128.3L804.8 129.0L808.8 128.9L809.4 129.6L806.6 132.1L807.8 136.0L806.1 137.3L808.0 138.3L808.3 140.3L809.6 142.8L813.7 143.9L814.2 144.9L816.3 144.4L820.1 145.5L820.4 147.4L819.6 148.6L822.1 151.3L823.6 152.1L823.4 152.9L826.0 153.6L827.1 154.7L825.6 155.7L822.5 155.5L821.7 155.9L823.6 160.0L825.1 160.2L826.0 159.2L831.3 159.0L833.7 161.4L832.8 162.3L833.1 163.6L836.2 163.8L837.6 165.6L837.5 166.5L842.4 167.9L845.4 167.3L847.8 169.2L850.1 169.2L855.8 170.6L855.9 171.8L854.3 174.0L855.1 176.4L854.5 177.8L850.8 178.1L848.8 179.2L848.6 181.1L845.5 181.5L843.0 182.8L839.3 183.1L836.0 184.6L836.2 186.9L835.1 185.9L831.1 184.9L830.0 185.9L823.4 184.4L823.2 182.8L819.6 183.3L818.1 185.6L815.1 188.8L815.2 189.9L813.3 190.8L812.1 190.4L811.1 195.5L809.0 197.2L807.6 200.2L808.9 202.6L805.5 202.1L801.6 203.4L803.5 204.5L802.3 207.2L801.3 207.6L796.9 207.1L792.2 208.2L794.9 210.6L792.9 211.3L790.8 211.3L788.7 209.1L788.0 210.0L788.9 212.5L790.8 214.5L789.3 215.5L793.4 218.6L793.5 221.0L789.9 219.9L791.0 222.0L788.6 222.5L790.0 226.2L787.5 226.3L784.3 224.4L782.1 218.2L778.6 213.9L777.6 211.5L775.5 210.1L775.1 208.0L776.0 203.8L775.3 203.2L773.4 201.5L765.8 197.6L762.3 196.3L759.0 193.2L759.8 192.9L758.0 191.1L758.0 189.7L755.5 189.0L754.3 190.8L753.1 189.4L753.2 188.0L754.2 187.5L751.1 186.9L747.9 188.4L748.2 190.5L747.7 191.7L749.0 193.8L752.6 196.0L754.6 199.5L758.9 202.9L761.9 202.8L762.9 203.8L761.8 204.6L768.1 207.4L771.5 209.6L771.9 210.4L771.1 211.9L769.0 209.9L765.6 209.2L764.0 212.0L766.8 213.5L766.3 215.7L764.7 216.0L762.6 219.6L761.0 219.9L761.8 216.4L762.6 215.5L759.9 210.9L758.3 210.4L757.2 208.6L754.7 207.8L753.0 206.1L750.1 205.8L747.1 203.9L740.9 198.7L739.7 194.6L734.6 192.7L732.8 193.2L730.5 195.2L728.9 195.5L725.4 197.9L717.7 196.8L712.1 198.1L711.6 200.7L711.8 203.1L708.1 205.9L703.2 206.8L702.8 208.2L700.4 210.6L698.9 214.0L700.4 216.4L698.2 218.3L697.3 221.1L694.4 221.9L691.7 225.2L683.0 225.1L680.6 226.6L679.1 228.2L677.2 227.9L675.7 226.4L674.6 224.0L671.0 223.4L669.5 224.5L667.4 223.9L665.4 224.3L666.0 221.0Z M732.8 214.6L732.6 209.5L731.7 207.1L733.9 207.3L735.8 206.0L738.1 209.0L737.6 214.6L735.8 214.3L734.2 215.7L732.8 214.6Z M734.0 200.0L736.5 198.4L737.2 202.0L735.9 205.3L734.1 204.4L733.2 201.6L734.0 200.0Z M662.3 152.5L670.6 147.2L671.4 149.5L670.6 151.7L673.0 151.7L675.9 152.6L676.5 155.6L673.6 159.3L666.7 161.8L661.2 161.2L664.4 156.8L662.3 152.5Z M749.4 145.2L747.0 148.6L742.9 146.2L742.4 144.5L748.1 143.1L749.4 145.2Z M627.4 111.9L611.5 109.9L615.3 108.1L606.8 106.0L613.7 105.2L613.6 104.0L605.4 103.0L608.0 100.2L613.9 99.6L620.0 102.5L625.9 100.2L630.8 101.4L637.1 99.1L643.6 99.4L642.7 102.1L647.1 105.0L642.0 108.2L630.8 111.1L627.4 111.9Z M755.7 223.8L748.3 221.2L748.9 219.0L753.4 219.4L760.4 218.6L759.0 221.9L759.5 223.2L758.7 225.4L755.7 223.8Z M782.5 105.4L783.1 108.0L769.4 115.1L766.6 121.0L769.3 124.0L773.1 126.3L769.5 131.1L765.4 132.1L764.0 139.2L761.8 143.1L757.0 142.7L754.8 146.1L750.3 146.3L749.1 142.3L745.8 137.5L742.9 131.5L740.3 128.9L732.6 133.8L727.4 134.8L722.0 132.6L720.6 128.1L719.4 118.3L723.0 115.6L733.3 112.1L740.9 107.7L757.4 93.7L774.6 85.2L783.1 83.4L789.5 83.6L795.5 80.1L802.6 80.3L809.5 79.4L821.7 82.5L816.7 83.7L820.9 86.3L811.2 88.4L810.6 91.3L816.6 94.2L813.0 97.3L817.5 102.2L814.9 105.8L818.4 108.9L816.8 111.7L822.6 114.6L821.1 116.7L809.2 124.5L802.1 124.9L788.9 127.3L786.7 125.0L782.9 123.6L783.8 119.5L781.9 115.7L783.8 113.2L787.3 110.5L798.8 105.1L798.4 103.3L793.0 101.3L786.3 102.5L782.5 105.4Z M774.0 48.3L771.8 51.4L768.4 52.2L766.6 55.7L761.9 55.9L753.5 53.3L757.0 51.8L751.2 50.6L743.6 47.0L740.6 43.7L751.2 42.2L753.3 43.7L758.9 43.6L760.4 42.2L766.1 42.0L783.8 46.6L774.0 48.3Z M794.3 230.7L800.2 230.7L800.1 231.5L802.2 231.0L801.8 232.2L796.2 232.6L796.2 231.9L791.4 231.0L792.2 229.2L794.3 230.7Z M790.5 50.3L796.1 51.3L787.5 53.0L780.6 52.0L783.3 50.9L780.9 49.6L789.0 48.7L790.5 50.3Z M767.5 40.9L779.6 39.7L785.2 40.7L789.1 39.4L799.0 40.5L806.6 42.0L800.8 44.3L789.5 44.8L778.1 44.1L777.4 42.9L771.8 42.8L767.5 40.9Z" />
    
    
  </g>
</svg>
