<svg xmlns="http://www.w3.org/2000/svg" viewBox="0 0 1400 760" preserveAspectRatio="xMidYMid meet">
  <style>
  .region-shape path { fill: rgba(243,243,244,0.12); stroke: rgba(243,243,244,0.38); stroke-width: 1.55; vector-effect: non-scaling-stroke; }
  .region-shape text { fill: rgba(243,243,244,0.96); font-family: Arial, Helvetica, sans-serif; font-size: 18px; font-weight: 700; paint-order: stroke; stroke: rgba(30,30,30,0.78); stroke-width: 4px; }
  .region-label-small { font-size: 13px; }
  .live path { fill: rgba(118,228,208,0.32); stroke: rgba(118,228,208,0.92); }
</style>
  <g class="region-shape" data-region="Indonesia">
    <path d="M1166.3 419.5L1169.7 422.1L1169.4 423.2L1167.8 423.3L1162.7 420.4L1166.3 419.5Z M1156.1 418.2L1154.0 418.1L1155.3 415.7L1157.5 415.7L1158.5 414.2L1159.9 415.3L1162.3 415.0L1163.3 416.8L1156.1 418.2Z M1171.5 417.7L1166.4 417.2L1166.4 415.7L1169.4 414.8L1171.9 416.0L1174.5 415.7L1178.0 414.2L1177.4 416.5L1171.5 417.7Z M1137.9 409.3L1139.4 412.1L1145.2 412.8L1150.0 415.3L1145.5 417.0L1141.3 415.3L1133.7 415.1L1122.7 412.3L1121.1 412.8L1114.0 411.1L1113.3 409.2L1109.8 408.9L1112.4 404.9L1117.1 405.1L1121.9 407.1L1122.4 408.6L1129.9 409.0L1130.7 407.3L1137.9 409.3Z M1183.9 378.2L1181.0 379.0L1177.3 378.2L1167.4 379.0L1166.8 382.2L1170.3 385.9L1172.4 384.0L1179.7 382.6L1179.3 384.5L1177.6 383.9L1176.0 386.4L1172.5 388.0L1176.2 393.5L1175.5 394.9L1179.0 399.8L1179.0 402.5L1176.9 403.8L1175.4 402.3L1177.2 398.8L1173.4 400.5L1172.5 399.3L1173.0 397.7L1170.2 395.2L1170.4 391.1L1167.9 392.4L1168.3 403.3L1165.9 404.0L1164.2 402.7L1165.3 398.8L1164.7 394.8L1163.1 394.7L1161.9 391.8L1163.5 389.1L1164.0 385.7L1166.8 377.6L1170.1 374.5L1173.1 375.7L1178.1 376.3L1182.5 376.1L1186.4 373.1L1187.0 374.0L1183.9 378.2Z M1112.6 392.9L1111.7 398.2L1111.5 404.7L1107.2 404.8L1103.9 401.3L1098.9 397.8L1094.3 391.8L1089.4 382.7L1086.0 379.2L1083.4 372.3L1079.9 369.6L1077.9 366.0L1075.0 363.7L1070.9 359.0L1070.6 356.9L1079.1 357.8L1082.5 362.0L1087.7 366.6L1091.4 371.1L1095.3 371.2L1098.6 374.1L1100.9 377.6L1103.8 379.6L1102.3 383.0L1104.5 384.5L1105.9 384.6L1106.5 387.5L1107.9 389.9L1110.8 390.3L1112.6 392.9Z M1162.8 376.2L1158.2 376.7L1156.9 379.6L1157.0 383.4L1153.3 386.3L1153.2 390.5L1151.7 396.9L1151.1 395.4L1146.7 397.3L1145.2 394.8L1142.4 394.5L1140.4 393.2L1135.8 394.7L1134.4 392.6L1131.9 392.9L1128.6 392.4L1128.1 386.7L1126.1 385.6L1124.2 381.9L1123.7 378.2L1124.2 374.3L1126.5 371.5L1127.1 374.4L1129.8 376.7L1132.3 375.9L1134.8 376.2L1137.0 374.0L1138.9 373.7L1142.6 374.9L1145.7 374.0L1147.7 368.1L1149.2 366.6L1150.6 361.8L1155.1 361.8L1158.4 362.5L1156.2 366.3L1159.1 370.3L1158.4 372.3L1162.8 376.2Z M1180.1 423.2L1180.5 421.8L1182.1 419.2L1186.0 417.5L1186.4 416.6L1193.7 414.9L1195.2 415.5L1193.8 416.6L1186.5 419.7L1183.9 422.8L1180.6 423.7L1180.1 423.2Z M1223.9 404.2L1223.9 406.2L1221.9 409.1L1221.5 405.9L1223.1 403.0L1223.9 404.2Z M1241.1 414.2L1240.1 415.4L1235.2 415.5L1236.8 412.1L1239.3 410.9L1238.3 406.3L1236.4 402.8L1228.8 399.2L1225.6 398.8L1219.8 394.9L1218.7 397.0L1217.2 397.4L1216.3 395.8L1216.3 394.0L1213.3 391.9L1217.5 390.4L1220.3 390.5L1219.9 389.4L1214.2 389.3L1212.7 386.8L1209.2 386.0L1207.6 384.0L1212.8 382.9L1214.8 381.6L1221.1 383.3L1222.8 391.7L1226.8 394.2L1230.0 389.7L1234.5 387.2L1237.9 387.2L1244.2 390.2L1248.3 391.0L1248.5 418.5L1245.0 415.0L1241.1 414.2Z M1194.9 394.6L1193.4 396.0L1190.7 395.2L1190.0 393.4L1193.9 393.2L1194.9 394.6Z M1205.5 394.6L1197.4 394.3L1198.3 392.0L1203.1 391.8L1207.4 393.1L1208.8 396.3L1205.5 394.6Z M1200.3 378.9L1198.2 378.5L1197.7 381.1L1199.3 383.3L1198.2 383.8L1196.6 381.1L1195.4 375.7L1196.2 372.4L1197.5 370.8L1197.8 373.1L1200.1 373.5L1200.5 375.2L1200.3 378.9Z" />
    
    
  </g>
</svg>
