<svg xmlns="http://www.w3.org/2000/svg" viewBox="0 0 1400 760" preserveAspectRatio="xMidYMid meet">
  <style>
  .region-shape path { fill: rgba(243,243,244,0.12); stroke: rgba(243,243,244,0.38); stroke-width: 1.55; vector-effect: non-scaling-stroke; }
  .region-shape text { fill: rgba(243,243,244,0.96); font-family: Arial, Helvetica, sans-serif; font-size: 18px; font-weight: 700; paint-order: stroke; stroke: rgba(30,30,30,0.78); stroke-width: 4px; }
  .region-label-small { font-size: 13px; }
  .live path { fill: rgba(118,228,208,0.32); stroke: rgba(118,228,208,0.92); }
</style>
  <g class="region-shape" data-region="Latin America">
    <path d="M416.5 402.3L416.2 404.2L415.3 405.7L415.6 408.0L413.3 409.2L413.3 411.0L412.3 411.8L413.9 415.6L416.1 418.1L415.2 420.0L417.8 420.2L419.3 422.4L422.7 422.6L425.9 420.1L425.6 426.5L427.4 427.0L429.6 426.2L434.5 426.5L435.4 425.2L440.8 421.9L445.9 421.2L445.7 428.8L449.9 432.6L454.2 433.3L455.8 434.9L458.4 435.7L460.0 437.0L462.5 436.9L464.7 438.2L465.7 443.7L464.6 443.7L466.1 448.6L473.5 448.8L472.9 451.3L473.4 452.9L475.5 454.1L476.4 456.7L475.7 460.1L474.6 461.9L475.0 464.3L473.8 465.2L474.9 467.5L474.7 473.3L478.8 474.1L480.4 473.3L483.0 474.4L483.7 475.7L484.6 481.2L486.0 481.3L487.5 480.7L488.9 481.4L488.9 483.7L487.6 488.7L489.5 487.9L491.4 490.3L491.4 493.7L485.5 497.7L475.9 507.6L478.4 507.1L482.3 510.4L483.8 510.3L490.8 515.3L493.1 518.2L491.4 520.2L492.4 522.6L490.8 525.2L486.4 527.6L483.5 526.7L481.4 527.2L477.8 525.4L475.2 525.5L472.8 523.2L472.5 525.4L477.5 529.0L476.9 531.9L479.4 533.7L479.2 535.8L475.4 541.2L469.7 543.5L461.9 544.4L457.6 543.9L458.4 546.5L457.6 549.6L458.3 551.7L456.0 553.2L452.0 553.8L448.3 552.3L446.8 553.4L447.3 557.6L449.9 558.8L452.1 557.5L453.2 559.7L449.6 561.0L446.5 563.6L445.9 567.9L445.0 570.2L441.4 570.2L438.3 572.3L437.2 575.5L441.0 578.6L444.7 579.4L443.4 583.2L438.8 585.6L436.3 590.6L432.7 592.2L431.1 594.2L432.4 598.6L435.0 601.0L429.9 600.8L424.5 603.4L423.9 607.3L422.2 607.4L417.8 606.0L408.5 600.7L407.3 598.0L408.4 595.5L406.5 592.7L406.0 585.5L407.6 581.5L411.7 578.2L405.8 577.0L409.5 573.2L410.9 566.2L415.2 567.7L417.2 559.0L414.6 557.8L413.4 563.1L410.9 562.5L413.5 548.6L415.3 545.8L414.1 541.6L413.8 536.9L415.5 536.7L420.5 523.2L422.2 516.9L421.3 510.6L422.4 507.1L422.0 501.9L424.3 496.7L427.4 470.3L427.1 463.4L426.3 457.5L422.4 455.0L422.1 453.3L414.4 449.1L407.4 444.5L404.4 441.9L402.8 438.4L403.4 437.1L400.1 431.6L392.6 415.4L391.0 413.5L389.8 410.4L386.8 407.6L384.0 405.9L385.3 404.0L383.4 400.0L384.6 397.0L387.7 394.4L389.8 391.2L388.9 389.4L387.5 391.3L385.1 389.5L385.9 388.3L385.3 384.5L386.6 383.8L387.3 381.2L388.8 378.5L388.5 376.8L393.3 374.2L392.8 372.9L394.3 372.5L394.1 370.4L395.0 368.9L396.9 368.6L400.1 363.7L398.6 362.7L399.4 360.3L398.5 356.4L399.3 355.3L398.7 351.7L395.8 348.3L395.0 346.0L396.0 344.9L395.0 344.6L394.2 343.2L392.3 342.0L390.6 342.3L389.8 343.8L387.4 345.0L387.0 345.8L388.9 348.1L387.3 349.3L385.4 349.5L384.8 347.0L384.3 347.7L383.0 347.5L382.2 345.8L377.9 345.0L377.8 345.9L375.2 344.3L374.5 343.4L374.8 341.8L370.8 339.4L370.6 338.2L369.5 337.4L369.8 338.6L369.0 339.6L368.1 338.5L366.9 338.1L366.3 337.2L366.9 334.6L365.8 334.0L366.7 333.2L359.1 325.5L359.5 324.8L360.1 325.5L360.4 325.2L359.8 323.9L358.6 323.5L358.2 324.5L355.9 324.4L352.9 323.2L350.7 322.9L347.6 321.3L345.2 321.2L341.3 318.6L336.9 314.1L334.9 312.7L331.8 311.6L329.6 311.9L324.5 313.9L307.9 307.5L303.7 304.4L297.5 302.8L295.9 300.8L291.7 298.4L289.7 295.8L288.8 293.7L290.1 293.3L289.7 292.1L290.6 291.0L290.6 289.6L287.7 283.8L284.2 279.6L280.3 276.3L278.4 273.7L275.1 272.0L274.4 271.0L275.0 268.4L273.0 267.4L270.7 265.3L269.7 262.4L267.6 262.0L263.6 257.7L263.4 256.4L261.3 253.2L259.9 250.0L260.0 248.4L257.2 246.7L255.9 246.9L253.6 245.7L253.0 247.4L254.0 252.6L259.5 258.6L260.0 260.0L260.7 260.0L261.5 262.7L265.9 267.4L267.2 271.4L269.5 275.2L269.7 277.4L271.6 277.5L274.5 281.3L274.4 282.1L272.8 283.7L272.1 283.6L271.1 281.1L268.5 278.7L263.7 275.5L263.9 272.5L263.3 270.2L258.7 267.0L258.2 267.5L257.3 266.4L254.9 265.4L252.6 262.9L254.4 262.9L255.9 261.3L256.0 259.4L253.0 256.4L250.8 255.2L244.5 242.6L253.9 241.8L253.5 242.7L268.2 247.7L279.1 247.7L279.1 245.9L285.8 245.9L291.5 250.6L293.8 255.1L295.8 256.4L299.0 257.7L301.5 254.3L304.6 254.3L307.4 255.9L310.7 261.3L313.0 263.7L314.9 268.7L320.7 270.9L322.2 270.8L320.0 277.5L319.4 285.2L320.1 287.5L321.3 289.6L322.0 292.9L324.6 296.0L325.5 298.4L327.1 300.5L331.2 301.6L332.8 303.4L344.5 300.3L347.0 298.6L347.9 296.1L348.2 292.6L348.9 291.3L355.7 289.2L361.5 289.0L362.4 289.9L362.3 292.0L360.2 294.5L359.3 297.0L360.0 297.8L358.4 302.9L357.4 301.8L356.6 301.9L356.6 302.5L357.4 302.5L356.7 305.5L357.0 306.2L356.4 310.2L355.6 311.3L354.9 311.5L354.2 312.9L355.4 313.7L355.8 313.1L357.3 313.8L358.2 313.0L362.0 313.5L363.8 313.4L365.5 312.4L367.7 312.9L369.5 312.5L371.9 313.1L375.6 315.5L376.6 316.7L376.1 318.0L376.5 319.6L375.2 322.7L375.4 327.6L374.8 328.0L374.7 330.9L373.9 332.0L374.1 333.1L375.7 336.1L380.4 341.1L380.3 342.0L382.2 341.9L383.3 342.9L385.2 342.6L389.2 340.7L390.5 339.4L394.7 340.2L396.4 341.0L399.2 343.4L401.2 343.5L404.1 340.6L405.7 340.1L406.5 335.2L408.7 333.2L411.1 333.1L411.5 332.2L414.5 332.6L419.1 329.5L421.0 327.5L422.3 327.7L423.4 328.9L422.5 331.3L420.2 331.8L421.5 333.7L421.4 335.9L419.7 338.3L421.2 341.7L422.9 341.4L423.7 338.4L422.5 336.9L422.3 333.7L427.2 332.0L426.6 330.0L428.0 328.6L429.4 331.6L432.1 331.7L434.6 334.0L434.8 335.4L442.4 335.0L444.7 336.9L447.6 337.5L449.8 336.1L449.9 335.1L459.4 334.8L456.0 336.0L457.4 338.0L460.5 338.3L463.4 340.4L464.1 343.8L466.1 343.7L470.2 346.2L472.6 349.0L472.7 351.2L474.1 351.3L477.8 354.8L482.4 355.6L482.8 354.9L486.0 354.6L490.2 355.7L488.1 359.3L488.4 362.2L490.0 364.7L489.0 368.5L488.0 370.2L485.7 369.3L483.9 369.8L482.3 369.4L481.9 370.6L482.6 371.5L482.2 372.3L477.0 371.8L475.8 372.9L472.8 373.8L472.3 374.6L470.4 374.4L468.0 372.5L466.8 368.4L467.4 364.8L468.5 363.3L467.6 361.3L466.2 360.7L466.7 358.8L465.8 357.9L463.8 358.0L464.3 359.2L462.9 360.8L455.8 363.1L454.6 364.1L448.7 362.5L447.9 362.9L449.7 364.0L449.5 366.8L450.1 369.5L453.4 369.8L453.6 370.7L450.8 371.9L450.3 373.7L445.8 375.4L445.1 376.7L442.1 376.9L439.9 374.7L439.2 375.2L438.4 372.7L437.4 371.4L436.1 372.9L428.5 372.8L428.5 375.4L430.8 375.8L430.7 377.5L429.9 377.0L427.7 377.7L427.7 380.8L429.4 382.3L430.0 384.7L428.2 398.1L424.7 397.9L424.2 398.6L421.0 399.4L416.5 402.3Z M399.8 305.3L397.6 304.6L395.4 303.0L395.8 302.1L397.5 301.8L401.0 302.3L403.0 303.3L403.7 304.5L400.9 304.6L399.8 305.3Z M418.6 303.1L414.3 303.1L412.5 303.9L410.4 302.6L410.8 301.2L417.3 302.1L418.7 301.2L416.9 299.3L417.0 297.7L414.5 297.1L415.4 295.9L421.1 296.8L421.6 296.0L424.6 296.1L426.9 297.1L428.0 297.0L428.7 298.5L430.8 298.5L430.7 299.7L432.4 299.9L434.3 301.4L432.9 303.1L431.0 302.2L428.0 302.2L427.3 303.0L425.8 303.2L425.2 302.2L423.9 302.8L422.3 305.7L421.3 305.0L421.1 303.8L418.6 303.1Z M395.3 284.9L402.4 290.5L406.0 291.3L405.7 292.5L408.6 292.6L411.5 294.4L411.1 295.3L405.9 296.1L403.2 295.8L397.6 296.2L400.2 293.8L398.6 292.7L396.1 292.4L394.8 291.2L393.9 288.8L391.7 289.0L388.0 287.8L386.9 287.0L381.8 286.3L380.5 285.5L381.9 284.4L378.1 284.2L375.3 286.4L373.7 286.5L373.1 287.5L371.2 288.0L369.5 287.6L371.6 286.2L372.4 284.7L374.2 283.8L380.1 282.1L386.5 282.4L390.1 283.9L391.7 285.4L395.3 284.9Z M396.5 277.5L395.1 276.2L395.9 273.6L397.1 273.7L398.5 277.2L398.5 279.7L397.5 279.9L396.5 277.5Z M399.2 268.0L397.5 265.8L400.6 267.7L399.9 270.7L399.2 270.2L399.2 268.0Z M392.9 266.9L397.2 266.7L397.4 267.8L393.1 268.4L392.9 266.9Z M430.8 614.3L427.9 613.1L423.9 612.4L419.0 610.1L415.0 607.8L409.6 603.1L412.9 604.0L418.3 606.8L423.5 608.3L425.5 606.4L426.7 603.5L430.3 601.7L433.1 602.2L436.5 607.4L441.6 609.9L447.0 611.0L445.3 613.1L441.6 613.3L439.6 611.8L438.3 613.5L435.0 614.8L430.8 614.3Z M474.2 599.1L469.0 600.4L467.2 598.9L463.9 600.8L462.0 598.9L466.7 596.4L470.0 597.4L472.3 595.8L475.4 597.7L474.2 599.1Z M459.1 337.4L460.2 336.2L460.1 334.6L463.2 334.2L463.0 337.3L459.8 337.8L459.1 337.4Z M438.7 304.2L438.5 302.4L439.1 301.8L444.2 302.2L444.9 303.0L443.9 304.1L438.7 304.2Z" />
    
    
  </g>
</svg>
