<svg xmlns="http://www.w3.org/2000/svg" viewBox="0 0 1400 760" preserveAspectRatio="xMidYMid meet">
  <style>
  .region-shape path { fill: rgba(243,243,244,0.12); stroke: rgba(243,243,244,0.38); stroke-width: 1.55; vector-effect: non-scaling-stroke; }
  .region-shape text { fill: rgba(243,243,244,0.96); font-family: Arial, Helvetica, sans-serif; font-size: 18px; font-weight: 700; paint-order: stroke; stroke: rgba(30,30,30,0.78); stroke-width: 4px; }
  .region-label-small { font-size: 13px; }
  .live path { fill: rgba(118,228,208,0.32); stroke: rgba(118,228,208,0.92); }
</style>
  <g class="region-shape" data-region="Pacific Islands">
    <path d="M0.8 447.6L0.3 449.7L0.0 449.9L0.0 447.8L0.8 447.6Z M1321.1 419.0L1323.6 419.7L1325.5 421.7L1321.6 421.4L1320.8 420.7L1321.1 419.0Z M1325.8 415.1L1327.2 418.5L1328.8 420.5L1328.2 421.3L1325.3 417.7L1324.5 415.1L1325.8 415.1Z M1321.9 416.1L1315.3 411.3L1315.8 410.9L1320.8 413.9L1321.9 416.1Z M1308.6 408.6L1308.8 407.9L1312.6 411.0L1311.9 411.3L1310.2 410.3L1308.6 408.6Z M1267.1 400.6L1267.7 403.1L1274.2 405.7L1275.1 407.9L1271.6 408.4L1272.4 411.2L1275.9 414.0L1278.4 418.4L1280.6 418.3L1280.5 420.2L1283.5 420.9L1282.3 421.7L1286.5 423.5L1286.0 424.7L1283.4 425.0L1282.5 423.9L1275.2 422.8L1270.0 417.8L1268.0 414.1L1262.9 412.2L1257.2 414.8L1257.7 417.9L1254.7 419.4L1252.5 418.7L1248.5 418.5L1248.3 391.0L1262.3 396.3L1267.1 400.6Z M1306.2 408.8L1305.1 409.2L1303.4 407.6L1301.7 404.9L1300.9 401.7L1301.4 401.3L1301.8 402.5L1306.7 407.6L1306.2 408.8Z M1282.2 406.7L1276.8 404.3L1277.1 403.0L1280.6 403.6L1282.7 403.2L1283.3 401.2L1283.9 401.1L1284.3 403.4L1286.5 403.0L1287.6 401.6L1289.7 400.1L1289.3 397.6L1291.6 397.5L1292.4 398.2L1292.4 400.6L1291.0 403.1L1289.0 403.5L1288.4 404.7L1284.3 406.7L1282.2 406.7Z M1294.3 400.1L1292.7 396.0L1288.7 392.8L1285.9 391.6L1287.0 390.6L1292.0 393.7L1295.1 396.8L1295.5 399.0L1294.3 400.1Z M1368.7 555.3L1369.3 552.9L1372.0 551.0L1373.7 554.5L1376.5 552.8L1377.6 554.6L1377.6 556.4L1373.6 561.4L1371.7 563.1L1373.1 565.2L1370.1 565.2L1366.8 566.8L1363.5 573.8L1358.5 576.9L1354.9 576.8L1352.4 575.4L1348.2 575.2L1347.5 573.6L1349.6 570.5L1354.5 566.3L1357.0 565.5L1363.2 561.7L1365.5 559.5L1367.2 556.4L1368.7 555.3Z M1380.8 554.9L1379.2 554.3L1381.4 550.8L1380.2 548.5L1376.0 546.8L1376.1 545.3L1378.9 543.8L1379.6 540.6L1379.4 537.8L1377.8 535.0L1377.9 534.3L1373.0 528.8L1371.4 525.8L1372.8 525.5L1374.9 527.8L1377.9 528.9L1379.0 532.7L1381.9 537.1L1381.9 534.2L1383.7 535.4L1384.3 538.6L1387.4 539.9L1390.0 540.3L1392.3 538.7L1394.2 539.2L1393.3 542.9L1392.1 545.4L1389.1 545.3L1388.1 546.6L1388.5 548.4L1384.5 554.3L1381.5 556.0L1380.8 554.9Z M1348.4 474.6L1341.0 469.3L1338.4 466.3L1337.9 464.9L1339.6 465.0L1341.7 466.4L1349.9 473.6L1348.4 474.6Z M1392.0 457.2L1389.8 456.7L1389.4 454.8L1390.9 453.4L1392.7 453.9L1393.7 453.2L1395.0 454.4L1394.4 456.6L1392.0 457.2Z M1394.5 450.3L1397.7 449.2L1400.0 447.8L1400.0 449.9L1395.0 451.8L1394.5 450.3Z M1350.3 447.1L1352.7 449.5L1351.4 450.1L1350.1 448.2L1350.3 447.1Z M1349.4 445.9L1348.6 446.2L1348.1 445.0L1348.0 441.8L1349.9 443.1L1350.5 446.5L1349.4 445.9Z M1330.5 424.3L1331.6 425.7L1328.8 425.7L1327.4 423.1L1330.5 424.3Z" />
    
    
  </g>
</svg>
