<svg xmlns="http://www.w3.org/2000/svg" viewBox="0 0 1400 760" preserveAspectRatio="xMidYMid meet" role="img" aria-label="Australia region overlay">
  <style>
    .region-shape path,
    .region-shape polygon,
    .region-shape polyline,
    .region-shape circle,
    .region-shape ellipse,
    .region-shape rect {
      fill: rgba(243,243,244,0.12);
      stroke: rgba(243,243,244,0.38);
      stroke-width: 1.55;
      vector-effect: non-scaling-stroke;
    }

    .region-shape.live path,
    .region-shape.live polygon,
    .region-shape.live polyline,
    .region-shape.live circle,
    .region-shape.live ellipse,
    .region-shape.live rect {
      fill: rgba(118,228,208,0.32);
      stroke: rgba(118,228,208,0.92);
      stroke-width: 2;
    }

    .region-label {
      fill: rgba(243,243,244,0.96);
      font-family: Arial, Helvetica, sans-serif;
      font-size: 19px;
      font-weight: 800;
      paint-order: stroke;
      stroke: rgba(18,18,18,0.82);
      stroke-width: 4px;
      text-anchor: middle;
      pointer-events: none;
    }

    .region-code {
      font-family: "Courier New", monospace;
      font-size: 17px;
      font-weight: 800;
    }
  </style>

  <g class="region-shape live" id="region-australia" data-region="Australia">
    <path d="M1276.7 552.6L1277.0 557.6L1275.6 559.1L1275.2 562.4L1273.9 561.3L1271.2 564.2L1268.0 563.9L1265.6 560.3L1265.0 557.5L1262.8 553.8L1262.9 551.9L1265.4 552.2L1269.2 553.7L1274.3 552.3L1276.7 552.6Z M1186.5 518.2L1183.1 519.2L1182.3 521.4L1180.9 523.1L1175.2 523.6L1171.7 522.8L1166.3 523.5L1163.9 525.7L1162.8 525.5L1159.0 528.1L1153.5 527.9L1147.3 524.4L1147.4 522.0L1149.3 521.4L1150.0 520.4L1150.3 516.0L1149.9 513.5L1147.2 506.8L1147.4 504.4L1145.8 501.6L1145.7 500.4L1144.0 498.7L1143.5 495.4L1141.3 492.1L1140.8 490.3L1142.5 492.1L1141.2 488.2L1143.1 489.4L1144.2 491.0L1144.2 488.9L1141.0 483.0L1141.4 480.5L1142.2 479.5L1142.7 477.4L1142.3 474.9L1143.9 471.9L1144.2 475.1L1145.9 472.2L1149.0 470.8L1150.9 469.0L1153.9 467.4L1155.6 467.1L1156.7 467.6L1159.8 466.0L1162.1 465.6L1162.7 464.6L1163.8 464.2L1165.9 464.3L1170.0 463.1L1172.1 461.2L1173.1 459.0L1175.4 456.8L1175.7 452.9L1178.4 449.3L1180.0 452.9L1181.7 452.1L1180.3 450.1L1181.5 448.0L1183.2 448.9L1183.7 445.7L1185.8 443.7L1186.8 442.0L1188.7 441.3L1188.8 440.1L1190.5 440.6L1190.6 439.5L1194.1 438.3L1197.0 440.3L1199.2 442.8L1204.1 443.2L1203.3 440.9L1205.1 437.5L1206.9 436.4L1206.3 435.3L1208.0 432.9L1210.3 431.4L1212.3 431.9L1215.6 431.1L1215.5 429.0L1212.7 427.6L1214.7 427.0L1217.3 428.0L1219.4 429.8L1222.6 430.8L1223.8 430.4L1226.2 431.7L1228.4 430.5L1229.9 430.9L1230.8 430.1L1232.6 432.2L1231.6 434.4L1230.1 436.1L1228.7 436.3L1229.2 437.9L1226.7 442.1L1226.9 443.3L1230.0 445.7L1233.0 447.0L1237.8 451.0L1238.9 451.0L1241.0 452.0L1241.6 453.3L1245.3 454.8L1247.8 453.3L1249.4 449.2L1251.1 443.5L1250.4 437.8L1250.9 434.7L1251.6 433.8L1251.0 432.4L1252.8 426.6L1254.2 425.0L1255.3 427.1L1255.6 429.8L1256.6 430.3L1256.7 432.0L1258.1 434.2L1258.3 438.1L1259.7 441.4L1262.2 439.8L1265.3 443.3L1264.9 445.1L1265.8 448.8L1266.4 450.9L1267.3 451.4L1268.4 455.0L1268.0 457.2L1269.3 460.0L1273.5 462.3L1278.9 466.1L1278.3 467.1L1280.6 469.8L1282.1 474.3L1283.6 473.4L1285.2 475.2L1286.2 474.6L1286.8 479.1L1294.4 486.7L1295.5 490.1L1295.4 495.1L1297.2 498.7L1297.0 502.4L1295.3 508.1L1295.3 510.6L1294.6 513.6L1292.9 517.4L1290.0 519.5L1287.3 524.9L1286.1 528.5L1284.6 530.6L1283.6 533.8L1283.3 538.0L1281.1 539.5L1276.7 539.6L1273.2 541.4L1269.0 544.8L1263.4 542.2L1264.0 540.0L1261.9 540.8L1258.5 543.9L1246.9 540.5L1244.4 537.9L1242.8 532.6L1240.9 530.9L1237.1 530.4L1238.4 528.3L1237.5 525.2L1235.6 528.1L1232.1 528.9L1234.1 526.5L1234.7 524.1L1236.2 522.0L1235.9 518.9L1232.8 522.5L1230.3 524.0L1228.8 527.3L1225.8 525.6L1225.9 523.3L1223.5 520.3L1221.4 518.7L1222.2 517.7L1217.2 515.2L1214.5 515.0L1210.7 513.0L1203.8 513.4L1194.3 516.3L1190.6 516.0L1186.5 518.2Z" />
    <text class="region-label region-code" x="1220" y="520">/au</text>
    <text class="region-label" x="1220" y="544">Australia</text>
  </g>
</svg>
