<svg xmlns="http://www.w3.org/2000/svg" viewBox="0 0 1400 760" preserveAspectRatio="xMidYMid meet" role="img" aria-label="Canada region overlay">
  <style>
    .region-shape path,
    .region-shape polygon,
    .region-shape polyline,
    .region-shape circle,
    .region-shape ellipse,
    .region-shape rect {
      fill: rgba(243,243,244,0.12);
      stroke: rgba(243,243,244,0.38);
      stroke-width: 1.55;
      vector-effect: non-scaling-stroke;
    }

    .region-shape.live path,
    .region-shape.live polygon,
    .region-shape.live polyline,
    .region-shape.live circle,
    .region-shape.live ellipse,
    .region-shape.live rect {
      fill: rgba(118,228,208,0.32);
      stroke: rgba(118,228,208,0.92);
      stroke-width: 2;
    }

    .region-label {
      fill: rgba(243,243,244,0.96);
      font-family: Arial, Helvetica, sans-serif;
      font-size: 19px;
      font-weight: 800;
      paint-order: stroke;
      stroke: rgba(18,18,18,0.82);
      stroke-width: 4px;
      text-anchor: middle;
      pointer-events: none;
    }

    .region-code {
      font-family: "Courier New", monospace;
      font-size: 17px;
      font-weight: 800;
    }
  </style>

  <g class="region-shape" id="region-canada" data-region="Canada">
    <path d="M206.7 170.9L206.0 169.7L202.0 168.9L200.5 166.6L200.8 165.6L211.0 167.6L214.2 171.1L218.1 172.8L219.7 175.2L217.7 175.8L211.3 173.8L210.2 172.4L206.7 170.9Z M186.0 157.7L184.5 155.8L182.6 154.5L181.8 152.6L182.1 151.3L183.9 151.8L187.6 151.5L186.5 156.3L189.9 159.7L188.3 159.7L186.0 157.7Z M202.3 161.6L202.8 159.1L197.8 157.3L197.1 153.9L192.4 150.8L192.4 148.6L194.5 146.6L194.4 143.9L187.8 141.2L181.4 133.4L175.2 129.7L173.1 127.6L169.2 128.9L165.5 131.3L159.3 126.7L155.5 125.5L151.7 125.4L151.7 85.7L159.0 86.7L165.1 88.7L169.2 89.1L172.6 87.3L177.3 86.0L183.1 86.5L188.9 84.7L195.2 83.6L197.9 85.4L200.8 84.4L201.7 82.4L204.4 82.9L210.9 86.6L216.1 83.8L216.7 87.0L221.4 86.3L222.9 85.1L227.6 85.3L233.6 87.1L242.7 88.6L248.0 89.3L251.8 89.1L257.1 91.2L251.6 93.3L258.6 94.2L269.1 93.7L272.4 93.0L276.6 95.5L280.8 93.4L276.8 91.6L279.3 90.1L287.2 89.5L290.3 90.5L294.2 92.8L298.6 92.5L305.5 94.4L311.5 93.7L317.2 93.8L316.7 91.2L320.2 90.4L326.2 91.9L326.2 95.9L328.7 92.5L331.8 92.6L333.5 88.4L329.4 85.8L324.8 84.1L325.1 79.4L329.7 76.3L334.9 77.0L338.8 78.9L344.1 83.6L340.6 85.7L347.9 86.6L347.9 90.9L353.1 87.6L357.7 90.3L356.5 93.4L360.3 96.3L364.4 93.2L367.2 89.6L367.4 84.9L378.7 85.9L383.9 88.0L384.1 90.1L381.2 92.3L384.0 94.6L383.5 96.6L375.9 99.6L370.5 100.2L366.5 99.0L365.3 101.1L361.5 104.7L360.4 106.5L355.9 109.4L350.3 109.6L347.3 111.4L347.0 114.2L342.5 114.7L337.7 118.1L333.5 122.9L332.0 126.2L331.8 131.1L337.5 131.8L341.1 139.0L346.5 138.1L353.7 140.0L357.6 141.6L360.4 143.6L365.3 144.7L369.4 146.5L380.1 147.2L379.4 150.8L380.6 155.1L383.4 159.8L389.2 163.8L392.2 162.4L394.3 158.1L392.3 151.4L389.6 149.2L395.8 147.2L400.2 144.2L402.3 141.3L402.0 138.5L399.4 134.9L394.7 131.7L399.2 127.3L397.6 123.5L396.3 116.9L399.0 115.9L409.6 117.5L412.8 116.3L421.3 120.2L422.4 121.9L429.4 122.2L429.3 125.7L430.5 131.1L434.1 131.7L436.9 134.2L442.5 131.9L446.3 127.2L448.8 125.2L461.2 139.5L459.7 142.1L464.8 144.5L468.3 146.9L474.5 148.0L477.0 149.4L478.6 152.9L481.6 153.5L483.2 155.1L483.5 159.8L477.8 162.9L471.4 164.4L466.5 167.9L460.0 168.5L451.6 167.7L441.8 167.9L438.5 171.0L433.6 172.8L423.5 182.3L426.8 181.6L433.0 176.1L441.2 172.5L447.0 172.1L450.4 174.2L446.8 177.0L449.3 184.8L454.3 186.9L460.8 186.3L464.7 181.5L464.9 184.6L467.4 186.1L462.6 188.9L454.0 191.4L450.2 193.1L445.8 196.1L442.9 195.8L442.7 192.3L449.5 188.8L438.9 189.4L436.4 187.0L436.4 181.3L434.6 180.1L432.0 180.8L430.7 179.7L427.8 182.9L426.6 186.1L425.2 188.1L422.3 188.9L421.9 190.0L408.9 190.0L402.5 194.1L401.3 195.8L393.9 195.8L392.1 196.5L392.7 197.3L393.0 199.0L387.9 201.1L383.9 201.8L379.4 204.0L378.4 204.0L376.7 202.8L380.6 196.0L379.0 188.5L374.9 186.6L375.4 185.8L373.8 185.3L373.0 184.6L372.8 183.6L371.0 183.9L371.2 183.5L370.3 183.1L369.9 182.0L356.3 176.1L352.8 177.2L346.8 176.2L343.6 176.7L339.8 175.4L333.2 174.5L332.0 173.8L331.3 171.5L329.9 171.5L329.9 173.1L221.8 173.1L211.5 167.1L204.4 165.4L202.3 161.6Z M311.9 87.0L315.3 85.7L318.0 83.8L324.5 85.8L328.0 88.2L325.6 89.7L320.4 88.4L317.2 88.9L311.9 87.0Z M307.3 84.3L306.9 86.2L300.5 86.5L303.0 88.2L301.7 89.7L287.9 87.9L283.4 88.2L276.1 89.6L259.3 90.6L257.2 88.6L251.9 87.5L248.5 88.0L243.7 84.6L252.3 83.4L257.8 83.6L262.8 82.9L255.3 81.9L241.5 82.2L239.4 80.6L248.4 78.9L242.5 79.0L235.7 77.9L238.9 74.7L241.6 73.0L252.0 70.4L256.0 71.3L254.1 73.2L262.7 72.0L268.1 74.1L272.5 71.9L276.1 73.3L279.3 77.5L281.2 75.7L278.5 71.4L281.9 70.8L285.7 71.5L290.1 73.2L293.7 80.3L307.3 84.3Z M322.3 69.8L318.7 71.8L324.6 73.6L323.9 77.4L317.5 79.1L313.7 78.7L311.1 77.1L301.4 73.8L301.5 72.5L309.4 73.0L305.1 70.3L309.7 68.2L314.4 69.1L321.3 68.6L322.3 69.8Z M250.8 69.8L236.4 73.8L231.5 76.8L231.5 78.6L221.3 80.6L219.3 78.8L210.3 76.6L214.6 71.7L218.0 68.9L214.2 66.3L227.4 65.7L232.9 66.5L242.8 66.8L250.8 69.8Z M285.4 69.2L290.7 69.1L293.6 70.0L290.2 72.8L284.1 69.8L285.4 69.2Z M273.4 64.0L263.6 65.8L257.7 65.9L257.2 64.5L265.2 62.6L247.7 63.1L242.2 62.4L247.5 58.3L251.2 57.1L262.1 58.5L269.1 61.0L275.9 61.3L270.3 57.3L273.9 55.8L277.9 56.2L280.7 59.8L284.2 59.1L288.2 59.2L288.9 61.3L286.6 63.3L273.4 64.0Z M307.7 63.1L307.8 60.6L301.4 61.0L301.1 57.7L305.3 57.8L311.2 56.4L316.6 56.6L316.9 56.1L319.9 58.0L320.0 60.2L318.3 63.3L311.9 63.8L307.7 63.1Z M248.1 52.2L247.6 55.4L244.6 56.9L241.0 57.1L233.7 58.9L227.5 59.5L222.2 58.6L228.8 55.5L236.8 52.7L242.8 52.8L248.1 52.2Z M261.6 50.5L267.3 50.0L272.8 50.7L271.5 51.9L264.2 53.2L258.5 51.8L261.6 50.5Z M316.7 48.7L316.4 47.0L323.7 47.4L328.4 48.9L327.3 50.4L321.6 51.3L318.4 50.3L316.7 48.7Z M306.0 50.6L299.6 49.2L291.0 49.1L294.7 47.8L290.0 46.8L289.8 45.2L307.9 47.3L310.9 49.3L312.4 51.1L306.0 50.6Z M266.4 47.1L268.5 47.3L273.5 48.1L268.8 48.9L262.3 48.9L262.4 48.3L266.4 47.1Z M456.9 185.6L455.5 185.9L450.6 184.1L449.6 182.7L451.1 181.4L452.4 183.5L455.2 184.0L458.8 183.9L456.9 185.6Z M482.9 170.6L486.4 171.8L488.2 170.8L492.0 172.1L490.8 175.2L493.6 174.4L495.3 179.3L493.6 183.0L491.9 183.2L489.3 182.4L490.1 178.9L489.1 178.4L484.6 182.0L482.2 181.9L485.0 179.9L481.2 178.9L469.5 179.0L468.9 177.8L471.3 176.3L469.7 175.1L472.9 172.6L476.9 165.9L479.3 163.5L482.7 162.0L484.5 162.2L479.1 169.7L481.7 168.3L484.3 169.2L482.9 170.6Z M457.7 172.7L452.7 171.4L449.1 169.4L450.4 169.1L455.6 170.1L459.5 171.9L459.6 172.7L457.7 172.7Z M388.5 119.4L387.5 118.2L389.2 116.6L390.8 116.7L391.7 117.6L390.2 119.8L388.5 119.4Z M374.2 117.5L373.4 116.3L376.2 114.4L381.6 114.4L381.5 115.2L377.0 117.5L374.2 117.5Z M388.5 110.9L385.0 112.3L379.0 111.2L376.8 109.3L372.9 111.6L367.4 113.8L366.1 111.3L360.8 111.7L364.2 109.6L364.7 106.3L366.0 102.4L368.8 102.8L369.5 104.6L371.5 104.0L382.5 107.9L382.8 109.9L385.7 109.5L388.5 110.9Z M404.9 91.7L407.9 92.8L407.9 94.7L407.5 95.2L405.0 96.5L400.6 96.7L399.6 94.6L401.3 92.3L404.9 91.7Z M419.1 77.9L423.1 80.6L432.5 82.2L435.9 83.9L439.6 87.9L432.4 89.8L441.6 92.6L447.8 93.5L453.3 97.4L459.5 97.7L458.3 100.7L451.4 105.6L446.6 103.8L440.5 99.7L435.5 100.2L435.0 102.6L439.1 105.1L444.4 107.0L446.0 108.2L448.5 112.3L447.2 115.4L442.3 114.2L432.5 110.9L442.1 117.0L442.7 118.5L432.1 116.8L423.8 114.4L419.1 112.3L420.4 111.1L409.0 106.9L409.0 108.1L397.8 108.8L394.5 107.4L397.1 104.3L412.4 103.6L411.1 102.1L412.4 100.0L417.5 95.9L416.4 94.0L414.9 92.6L408.9 90.5L401.1 89.1L403.6 88.0L399.4 85.4L396.0 85.2L392.9 83.7L390.9 85.0L383.8 85.5L369.7 84.6L355.1 82.7L351.9 81.2L356.0 79.3L350.4 79.3L349.2 75.0L352.2 71.2L356.2 69.5L366.2 68.4L363.4 71.1L366.4 73.7L370.0 70.3L379.9 68.6L386.6 73.0L386.0 75.7L393.7 74.5L397.3 72.8L406.0 75.0L411.3 77.0L411.8 78.8L419.1 77.9Z M333.4 75.9L329.0 75.7L326.5 72.0L326.6 69.9L328.6 68.1L332.5 67.0L340.6 67.1L348.0 68.2L342.2 71.9L337.6 72.7L333.4 75.9Z M403.1 71.3L403.5 72.5L395.1 72.3L390.9 72.9L385.5 70.4L385.6 68.9L387.5 68.6L396.4 69.0L403.1 71.3Z M331.1 60.6L334.5 62.1L336.0 63.4L333.8 65.1L328.2 64.7L323.5 63.6L325.5 61.7L331.1 60.6Z M334.9 57.8L326.8 57.2L322.3 55.9L323.8 54.2L331.8 54.5L336.1 55.8L343.8 55.8L347.1 57.2L346.2 58.8L353.2 60.8L364.1 61.3L370.3 60.4L384.5 60.3L388.7 61.9L389.5 63.7L387.1 64.8L381.3 65.7L376.3 65.2L357.2 65.9L350.9 65.4L340.6 64.0L339.2 61.7L338.8 59.6L334.9 57.8Z M335.5 52.2L335.1 52.7L333.3 52.8L326.0 52.5L325.0 51.4L332.8 51.4L335.5 52.2Z M372.3 31.2L376.5 32.4L379.5 30.1L384.6 29.5L403.5 28.8L405.5 29.3L416.8 28.6L444.0 29.4L452.4 30.0L459.5 31.1L459.3 32.3L449.8 34.1L440.4 34.9L436.9 35.9L445.4 35.9L429.8 39.6L423.2 43.1L415.2 43.8L412.7 44.6L400.9 45.1L406.3 45.6L403.6 46.4L406.8 48.4L403.1 49.9L397.1 51.1L395.3 52.7L389.8 54.0L390.4 55.0L397.0 54.8L397.1 55.8L386.7 58.4L376.5 57.2L365.1 57.8L352.0 57.1L351.5 55.1L358.7 54.1L356.8 51.1L359.1 50.8L369.5 52.6L364.2 49.9L357.9 49.1L361.1 47.5L368.0 46.5L369.1 45.0L363.6 43.3L361.9 41.2L375.6 41.8L381.7 40.3L372.9 39.8L359.3 40.0L352.5 38.6L349.2 36.9L344.7 35.7L343.8 34.2L361.8 32.6L367.5 31.0L372.3 31.2Z M345.6 39.2L358.5 40.9L361.6 43.7L366.3 45.0L360.9 46.3L353.8 49.5L346.9 49.8L338.8 49.2L334.6 47.5L334.7 46.0L337.8 44.8L330.7 44.9L326.4 43.5L323.9 41.6L329.3 38.4L333.3 38.1L331.6 37.1L340.6 36.9L345.6 39.2Z" />
    <text class="region-label region-code" x="323" y="132">/ca</text>
    <text class="region-label" x="323" y="156">Canada</text>
  </g>
</svg>
