<svg xmlns="http://www.w3.org/2000/svg" viewBox="0 0 1400 760" preserveAspectRatio="xMidYMid meet" role="img" aria-label="Middle East + North Africa region overlay">
  <style>
    .region-shape path,
    .region-shape polygon,
    .region-shape polyline,
    .region-shape circle,
    .region-shape ellipse,
    .region-shape rect {
      fill: rgba(243,243,244,0.12);
      stroke: rgba(243,243,244,0.38);
      stroke-width: 1.55;
      vector-effect: non-scaling-stroke;
    }

    .region-shape.live path,
    .region-shape.live polygon,
    .region-shape.live polyline,
    .region-shape.live circle,
    .region-shape.live ellipse,
    .region-shape.live rect {
      fill: rgba(118,228,208,0.32);
      stroke: rgba(118,228,208,0.92);
      stroke-width: 2;
    }

    .region-label {
      fill: rgba(243,243,244,0.96);
      font-family: Arial, Helvetica, sans-serif;
      font-size: 19px;
      font-weight: 800;
      paint-order: stroke;
      stroke: rgba(18,18,18,0.82);
      stroke-width: 4px;
      text-anchor: middle;
      pointer-events: none;
    }

    .region-code {
      font-family: "Courier New", monospace;
      font-size: 17px;
      font-weight: 800;
    }
  </style>

  <g class="region-shape" id="region-mena" data-region="Middle East + North Africa">
    <path d="M653.6 281.3L649.9 281.7L649.0 283.9L649.7 290.0L634.5 289.9L633.6 291.3L634.0 287.6L635.5 286.4L636.8 284.2L636.5 282.8L637.8 279.8L640.0 277.2L641.3 276.5L642.3 274.0L642.4 271.8L643.8 269.1L646.4 267.6L648.9 263.3L650.9 261.6L654.5 261.2L657.6 258.3L659.6 257.1L662.8 253.6L661.8 248.4L663.8 242.5L666.3 239.7L673.1 236.0L676.9 229.0L679.8 229.0L682.1 230.8L685.8 230.5L691.6 231.5L695.3 229.2L699.5 228.5L702.0 226.7L705.7 225.4L718.7 224.3L720.7 225.0L724.4 223.3L728.5 223.3L730.1 224.3L732.7 224.0L737.0 222.3L739.7 222.8L739.6 224.9L742.9 223.4L743.2 224.2L741.2 226.3L741.2 228.2L742.5 229.3L742.0 232.9L739.5 235.0L740.2 237.3L742.2 237.4L743.2 239.4L744.7 240.1L749.2 241.5L750.9 241.2L754.1 241.9L759.3 243.8L761.1 247.5L770.1 250.1L774.2 252.2L776.1 251.1L778.0 249.2L777.1 245.9L778.3 243.9L781.1 241.9L783.8 241.3L789.0 242.2L790.4 244.1L796.9 245.3L797.9 246.7L803.0 246.6L812.4 249.7L817.0 247.1L820.5 246.8L823.2 247.3L824.3 249.4L825.2 248.0L828.3 249.0L831.3 249.2L833.3 248.2L834.4 246.8L834.1 246.6L835.1 244.6L835.9 241.4L840.0 233.7L839.6 230.5L840.6 228.8L839.2 226.8L840.6 225.3L838.3 225.6L835.0 224.6L832.3 227.1L826.4 227.5L823.3 225.3L819.1 225.1L818.2 226.9L815.5 227.4L811.7 225.1L807.5 225.2L805.2 221.0L802.3 218.7L804.2 215.4L801.8 213.4L806.1 209.3L812.1 209.2L813.7 206.0L821.1 206.5L825.8 203.8L830.3 202.6L836.8 202.5L843.6 205.5L849.1 207.1L853.7 206.5L857.0 206.8L861.6 204.6L865.7 204.4L869.5 206.5L870.1 208.0L869.8 210.0L872.7 211.1L874.2 212.3L874.8 213.9L876.8 215.9L880.9 216.3L885.4 213.2L886.9 212.9L888.0 214.1L886.7 216.2L889.1 218.4L890.1 218.2L891.3 221.3L895.0 222.2L897.7 224.3L903.2 225.0L909.3 223.9L909.7 222.9L913.1 222.1L915.9 219.7L918.5 219.8L920.2 219.0L923.0 219.4L927.3 221.6L930.4 222.0L934.8 225.8L937.7 225.9L938.0 229.5L935.4 237.8L937.1 238.4L935.4 240.7L936.7 244.1L937.0 246.8L939.9 247.5L940.3 250.2L936.7 254.1L940.2 258.8L943.9 260.7L944.0 264.4L945.9 265.1L946.2 267.0L940.6 269.2L939.2 274.1L923.2 271.3L921.6 266.1L919.7 265.4L916.7 266.1L912.8 268.2L908.0 266.8L904.1 263.5L900.4 262.3L894.9 252.7L892.8 253.4L890.3 252.0L888.9 253.6L886.6 253.4L887.4 255.3L887.0 256.3L889.8 263.1L891.7 264.1L892.4 265.5L895.0 267.3L895.3 269.1L894.9 270.5L897.6 275.5L897.3 272.4L898.4 270.2L899.4 269.7L900.6 271.1L900.7 273.5L899.8 276.0L900.6 277.6L901.3 277.4L901.4 278.6L904.5 277.9L910.0 278.2L919.2 268.6L919.7 268.9L918.8 271.4L919.3 274.8L921.1 277.6L923.2 279.2L928.4 280.5L931.2 284.3L932.6 284.9L932.6 285.8L930.5 289.5L928.9 290.9L927.5 293.7L925.7 293.5L924.9 294.5L924.3 296.7L924.7 299.5L924.4 300.0L922.6 300.0L920.1 301.6L919.8 303.6L918.9 304.5L916.5 304.5L914.9 305.6L915.0 307.3L913.1 308.4L910.9 308.0L908.3 309.5L903.7 310.8L902.9 314.1L892.8 317.9L889.3 320.9L886.4 320.9L884.2 322.6L881.7 323.4L877.4 323.9L876.6 325.0L875.6 325.3L875.0 326.4L873.0 326.3L871.8 326.9L869.1 326.6L868.1 324.2L868.2 321.9L866.8 317.5L865.7 315.8L866.5 315.6L866.1 313.6L866.5 312.8L865.9 309.2L864.7 307.9L864.4 306.2L862.4 304.7L860.3 301.2L859.2 297.7L856.5 294.8L854.8 294.1L852.2 290.1L851.9 284.7L849.7 280.0L847.9 278.3L845.8 277.5L844.5 275.0L844.7 274.1L843.6 271.9L842.5 271.0L841.0 267.8L836.6 261.5L834.7 261.5L835.9 256.1L835.8 255.4L835.4 254.3L835.8 255.4L834.7 257.1L832.8 262.5L831.9 263.3L828.9 260.0L826.1 254.0L825.7 254.3L827.3 258.8L832.6 269.6L835.3 274.3L838.8 279.0L838.0 279.7L838.2 282.5L843.4 287.1L797.2 287.1L797.2 295.5L792.8 295.6L792.7 297.3L761.7 281.2L755.0 285.0L752.8 282.7L746.7 280.9L733.3 288.9L722.1 297.2L716.6 299.1L712.3 299.5L712.2 296.8L708.0 295.0L707.1 293.0L666.2 264.3L666.2 270.7L653.5 270.5L653.6 281.3Z M830.2 232.2L831.7 231.8L832.2 232.3L828.3 234.0L826.4 233.5L825.4 231.8L829.8 231.5L830.2 232.2Z M812.7 205.6L812.0 206.7L807.4 206.9L802.5 210.5L801.3 208.5L801.3 207.6L802.3 207.2L803.5 204.5L801.6 203.4L805.5 202.1L808.9 202.6L809.3 204.3L812.7 205.6Z" />
    <text class="region-label region-code" x="782" y="274">/mena</text>
    <text class="region-label" x="782" y="298">Middle East</text>
    <text class="region-label" x="782" y="320">North Africa</text>
  </g>
</svg>
